<?xml version="1.0" encoding="UTF-8"?>
<svg id="Layer_2" xmlns="http://www.w3.org/2000/svg" viewBox="0 0 44.86 50">
  <defs>
    <style>
      .cls-1 {
        fill: #fff;
      }
    </style>
  </defs>
  <g id="Layer_1-2" data-name="Layer_1">
    <path class="cls-1" d="M22.43,3.12c3.45,0,6.25,2.8,6.25,6.25v6.25h-12.5v-6.25c0-3.45,2.8-6.25,6.25-6.25M31.81,15.62v-6.25c0-5.18-4.2-9.37-9.37-9.37s-9.37,4.2-9.37,9.37v6.25h-5.13c-2.32,0-4.29,1.7-4.63,3.99L.09,41.03c-.64,4.27,2.3,8.24,6.57,8.88.38.06.77.09,1.15.09h29.23c4.31,0,7.81-3.5,7.81-7.81,0-.39-.03-.77-.09-1.16l-3.21-21.42c-.34-2.29-2.31-3.99-4.63-3.99h-5.13ZM28.68,18.75v4.69c0,.86.7,1.56,1.56,1.56s1.56-.7,1.56-1.56v-4.69h5.12c.77,0,1.43.57,1.54,1.33l3.21,21.41c.38,2.56-1.38,4.95-3.94,5.33-.23.03-.46.05-.7.05H7.81c-2.59,0-4.69-2.1-4.69-4.69,0-.23.02-.47.05-.7l3.21-21.41c.11-.76.77-1.33,1.54-1.33h5.13v4.69c0,.86.7,1.56,1.56,1.56s1.56-.7,1.56-1.56v-4.69h12.5Z"/>
  </g>
</svg>