<?xml version="1.0" encoding="UTF-8"?>
<svg id="Layer_2" xmlns="http://www.w3.org/2000/svg" viewBox="0 0 50.01 50">
  <defs>
    <style>
      .cls-1 {
        fill: #fff;
      }
    </style>
  </defs>
  <g id="Layer_1-2" data-name="Layer_1">
    <path class="cls-1" d="M36.7,32.32c6.63-9.05,4.67-21.76-4.38-28.39C23.27-2.7,10.56-.74,3.93,8.31-2.7,17.36-.74,30.07,8.31,36.7c7.15,5.24,16.88,5.24,24.03,0h0c.09.13.19.24.31.36l12.03,12.03c1.22,1.22,3.2,1.22,4.42,0s1.22-3.2,0-4.42l-12.03-12.03c-.11-.11-.23-.22-.36-.31h0ZM37.51,20.31c0,9.49-7.7,17.19-17.19,17.19S3.13,29.8,3.13,20.31,10.83,3.12,20.32,3.12s17.19,7.7,17.19,17.19"/>
  </g>
</svg>