<?xml version="1.0" encoding="UTF-8"?>
<svg id="Layer_2" xmlns="http://www.w3.org/2000/svg" viewBox="0 0 50 50">
  <defs>
    <style>
      .cls-1 {
        fill: #fff;
      }
    </style>
  </defs>
  <g id="Layer_1-2" data-name="Layer_1">
    <path class="cls-1" d="M25,25c6.9,0,12.5-5.6,12.5-12.5S31.9,0,25,0s-12.5,5.6-12.5,12.5,5.6,12.5,12.5,12.5M33.33,12.5c0,4.6-3.73,8.33-8.33,8.33s-8.33-3.73-8.33-8.33,3.73-8.33,8.33-8.33,8.33,3.73,8.33,8.33M50,45.83c0,4.17-4.17,4.17-4.17,4.17H4.17s-4.17,0-4.17-4.17,4.17-16.67,25-16.67,25,12.5,25,16.67M45.83,45.82c0-1.03-.64-4.11-3.47-6.93s-7.83-5.55-17.37-5.55-14.65,2.83-17.37,5.55c-2.82,2.83-3.46,5.91-3.47,6.93h41.67Z"/>
  </g>
</svg>